<svg width="1024" height="1024" viewBox="0 0 1024 1024" xmlns="http://www.w3.org/2000/svg" style="background:#4fc3f7"><title>Artboard Copy</title><g fill="#DFDF1F" fill-rule="evenodd"><path d="M731.435 285.257h-47.556l-72.404 16.091h150.674zm-119.96 32.77v-15.216l-172.617 76.07zm95.085.924l68.755 29.21-11.884-40.96zm-93.622-10.335v39.544l121.417-40.96zm92.879 14.675l-56.308 22.982L756.264 358.4l14.662-4.47zm-97.268 2.926l-173.571 63.348-110.223 74.161 120.812-65.884z"/><path d="M608.549 330.606l-150.674 67.291 68.072-7.649zm-3.686 17.515l.76-14.59-42.423 30.72zm127.722 52.277l-90.39-56.627 6.04 58.598 86.12 27.711zm-95.575-53.701l-44.312 14.114-1.703 18.45 51.2 23.025zm25.665 1.463l34.949 25.028 36.089 23.246 10.882-16.687zm7.314 1.463l72.683 29.257 16.55-17.82zm101.954 1.463l-22.96 23.29 46.812 14.744zM562.587 372.67l-31.57 21.637 57.748 12.367.767-40.96zm28.408 29.616l16.09-10.97-16.09-6.585zm19.987-11.703l-19.987 13.825 235.52 144.163-136.978-125.628z"/><path d="M466.652 397.728l83.383 38.203-14.293-40.96zm118.491 10.54l-40.96-8.908 22.34 61.44zm-160.239 39.013h129.519l-99.561-46.458L352.01 453.54l-30.182 51.147zm159.115-33.293l-13.504 52.736 81.92 242.762zm11.364 5.852l57.136 230.297 124.259 154.434L616.24 435.194zm139.497 12.623l-40.022-9.697 92.16 87.771zm-414.62 32.542l52.769-37.85-99.394 61.762-19.097 25.371 4.922.638zm-128.81-.668l-75.884-37.183 54.372 51.112L246.702 512l1.984-18.527zm539.789 111.157L640.62 445.54l-18.906-11.072 81.733 182.402 164.027 143.816zm-81.73-132.248l126.79 163.035 143.839 117.833-239.486-260.862zm-558.811 10.24l44.853 27.47 94.118 28.118z"/><path d="M342.309 454.948l-19.231 10.037-77.318 60.181 68.374-21.842zm-26.331 0l-63.773 16.253-4.982 40.8 18.254-26.5zm-124.343 0l57.243 35.11 1.27-19.582zM86.309 469.577l102.952 39.497 15.539-5.444zm649.597 37.199l-46.9-32.81L849.3 637.826l85.466 59.957z"/><path d="M184.32 506.89l-30.556-10.747-51.364-3.16 69.694 17.554zm73.143 10.195l-47.272-12.399-88.773 33.765 99.417 2.806zm44.89-3.449l-85.85 77.358 114.103-86.308zm446.63-.173l66.727 61.221 123.445 77.75-113.432-90.802zm-449.097 0l-48.81 16.237-119.418 118.346 85.162-64.12zm-139.333 68.092l-46.45 69.416 130.195-122.88zm7.884-18.959l21.735-20.654-12.418-.685-53.411 35.11zm46.603-21.339h-19.257l-71.44 57.051z"/></g></svg>