<svg width="512" height="512" viewBox="0 0 512 512" xmlns="http://www.w3.org/2000/svg" style="background:#4fc3f7"><title>Artboard Copy</title><g fill="#DFDF1F" fill-rule="evenodd"><path d="M365.717 142.629H341.94l-36.202 8.046h75.337zm-59.98 16.385v-7.608l-86.309 38.034zm47.543.462l34.377 14.604-5.942-20.48zm-46.812-5.168v19.772l60.71-20.48zm46.44 7.338l-28.154 11.49 53.377 6.064 7.332-2.235zm-48.634 1.463l-86.785 31.674-55.112 37.08 60.406-32.942z"/><path d="M304.274 165.303l-75.337 33.646 34.036-3.825zm-1.843 8.757l.38-7.294-21.21 15.36zm63.861 26.14l-45.195-28.314 3.02 29.299 43.06 13.855zm-47.787-26.851l-22.156 7.057-.852 9.225 25.6 11.512zm12.832.731l17.474 12.515 18.045 11.623 5.441-8.344zm3.657.732l36.342 14.628 8.275-8.91zm50.977.731l-11.48 11.645 23.406 7.372zm-104.678 10.793l-15.785 10.818 28.874 6.184.383-20.48zm14.204 14.807l8.046-5.485-8.046-3.292zm9.994-5.851l-9.994 6.912 117.76 72.082-68.489-62.814z"/><path d="M233.325 198.864l41.692 19.102-7.147-20.48zm59.246 5.271l-20.48-4.455 11.17 30.72zm-80.12 19.505h64.76l-49.78-23.228-51.426 26.358-15.09 25.573zm79.559-16.645l-6.753 26.367 40.96 121.38zm5.681 2.925l28.568 115.149 62.13 77.217-80.269-184.688zm69.749 6.312l-20.012-4.85 46.08 43.887zm-207.31 16.271l26.384-18.925-49.697 30.88-9.549 12.686 2.461.319zm-64.405-.334l-37.942-18.591 27.185 25.556L123.35 256l.993-9.263zm269.895 55.578l-45.31-64.977-9.453-5.535 40.867 91.2 82.013 71.908zm-40.866-66.124l63.395 81.518 71.92 58.917-119.743-130.431zm-279.406 5.12l22.427 13.735 47.06 14.06z"/><path d="M171.154 227.475l-9.615 5.018-38.659 30.09 34.187-10.921zm-13.166 0l-31.886 8.126-2.49 20.399 9.126-13.25zm-62.171 0l28.621 17.554.636-9.791zm-52.663 7.314l51.476 19.749 7.77-2.723zm324.798 18.599l-23.449-16.405 80.146 81.93 42.734 29.979z"/><path d="M92.16 253.445l-15.278-5.373-25.682-1.58 34.847 8.777zm36.571 5.098l-23.636-6.2-44.387 16.883 49.71 1.403zm22.445-1.725l-42.925 38.68 57.052-43.155zm223.315-.086l33.363 30.61 61.723 38.876-56.716-45.402zm-224.548 0l-24.405 8.119-59.71 59.172 42.582-32.06zm-69.667 34.046l-23.225 34.708 65.097-61.44zm3.942-9.48l10.867-10.327-6.208-.342-26.706 17.554zm23.302-10.669h-9.629l-35.72 28.526z"/></g></svg>